<svg width="200" height="47" viewBox="0 0 200 47" fill="none" xmlns="http://www.w3.org/2000/svg">
<g clip-path="url(#clip0_848_4154)">
<path d="M9.14133 37.7556C9.14133 38.3902 9.02824 38.9882 8.79943 39.5523C8.57062 40.1164 8.23924 40.6099 7.80267 41.0382C7.36609 41.4664 6.82168 41.8033 6.16944 42.0488C5.51721 42.2943 4.77292 42.417 3.93922 42.417H3.62625C3.5079 42.417 3.37903 42.4118 3.23438 42.3987V46.7493H0.183594V33.6401C0.756931 33.614 1.35394 33.5905 1.97461 33.5722C2.59266 33.5539 3.24753 33.5435 3.93922 33.5435C5.63556 33.5435 6.92425 33.9064 7.81319 34.6298C8.69949 35.3558 9.14396 36.3977 9.14396 37.7583L9.14133 37.7556ZM5.9906 37.8914C5.9906 37.3352 5.82755 36.8808 5.50143 36.5309C5.17531 36.181 4.63353 36.006 3.87873 36.006H3.54735C3.44215 36.006 3.33958 36.0138 3.23438 36.0269V39.8709C3.33958 39.8839 3.43426 39.8944 3.51842 39.8996C3.60258 39.9048 3.68411 39.9101 3.76301 39.9101C4.40209 39.897 4.93335 39.7194 5.35678 39.3747C5.78021 39.0326 5.99324 38.5365 5.99324 37.8888L5.9906 37.8914Z" fill="white"/>
<path d="M24.3976 45.689C23.4061 46.5612 22.0359 46.9999 20.2896 46.9999C19.2323 46.9999 18.3697 46.8693 17.6964 46.6108C17.0257 46.3523 16.4945 45.9997 16.1026 45.5506C15.7108 45.104 15.4399 44.587 15.2926 43.9968C15.1427 43.4066 15.0664 42.7825 15.0664 42.1218V33.6348H18.1172V41.9312C18.1172 42.3177 18.154 42.665 18.225 42.9679C18.296 43.2708 18.4196 43.532 18.5958 43.7539C18.7721 43.9733 19.0114 44.1404 19.3191 44.2579C19.6242 44.3755 20.0134 44.4329 20.4816 44.4329C21.3416 44.4329 21.9543 44.2318 22.3199 43.8323C22.6855 43.4327 22.8669 42.7407 22.8669 41.7588V33.6374H25.8783V41.5995C25.8783 43.451 25.3838 44.8142 24.3923 45.6864L24.3976 45.689Z" fill="white"/>
<path d="M42.527 42.6495C42.527 43.1796 42.4244 43.6915 42.2245 44.1824C42.022 44.6734 41.7012 45.1147 41.2672 45.5038C40.8306 45.8929 40.2704 46.2036 39.584 46.4361C38.9002 46.6685 38.0691 46.786 37.0908 46.786C36.6858 46.786 36.1256 46.7808 35.4076 46.7677C34.6896 46.7546 33.848 46.7494 32.8828 46.7494V33.6611C33.4956 33.635 34.232 33.6115 35.0946 33.5932C35.9546 33.5749 36.7962 33.5645 37.6168 33.5645C39.037 33.5645 40.1495 33.8413 40.9516 34.3897C41.7538 34.9407 42.1535 35.7659 42.1535 36.8653C42.1535 37.4868 42.001 38.0482 41.6933 38.5548C41.3856 39.0588 40.9411 39.4427 40.3546 39.7012V39.7587C41.0331 39.9415 41.5644 40.3019 41.9484 40.8477C42.3324 41.3908 42.5243 41.9941 42.5243 42.6547L42.527 42.6495ZM38.9265 37.3275C38.9265 36.9149 38.7792 36.5858 38.4873 36.3456C38.1928 36.108 37.7351 35.9852 37.1092 35.9852C36.8751 35.9852 36.6647 35.9878 36.4833 35.9957C36.3018 36.0035 36.1177 36.0113 35.9362 36.0244V38.8969C36.0677 38.91 36.2045 38.9152 36.3465 38.9152H36.8357C37.58 38.9152 38.1139 38.7716 38.44 38.4869C38.7661 38.2023 38.9292 37.8132 38.9292 37.3223L38.9265 37.3275ZM39.2579 42.6887C39.2579 42.1847 39.0528 41.8008 38.6425 41.5423C38.2322 41.2838 37.6668 41.1532 36.9514 41.1532H36.4622C36.2282 41.1532 36.0519 41.1584 35.9336 41.1715V44.2581C36.0651 44.2843 36.2413 44.2999 36.4622 44.3078C36.6831 44.313 36.9067 44.3182 37.1276 44.3182C37.8193 44.3182 38.3479 44.172 38.7109 43.8821C39.0764 43.5896 39.2579 43.1927 39.2579 42.6861V42.6887Z" fill="white"/>
<path d="M48.9844 46.7467V33.6375H52.0352V44.0648H56.0249V46.7441H48.9844V46.7467Z" fill="white"/>
<path d="M61.7969 46.7467V33.6375H64.8477V46.7467H61.7969Z" fill="white"/>
<path d="M78.963 46.7781C78.3896 46.8748 77.8163 46.9244 77.243 46.9244C76.0305 46.9244 75.0259 46.7364 74.2316 46.3603C73.4374 45.9843 72.8036 45.4985 72.3354 44.9031C71.8646 44.3078 71.5359 43.6366 71.3465 42.8924C71.1572 42.1481 71.0625 41.4065 71.0625 40.6675C71.0625 39.6072 71.2072 38.6384 71.4938 37.7636C71.7805 36.8888 72.2065 36.1393 72.7746 35.5099C73.3427 34.8806 74.0396 34.3975 74.8681 34.0528C75.6965 33.7107 76.6565 33.5383 77.7532 33.5383C78.2108 33.5383 78.6737 33.5671 79.1418 33.6271C79.6126 33.6846 80.0492 33.7786 80.4516 33.9092L80.0597 36.6668C79.3154 36.3952 78.5264 36.2594 77.6927 36.2594C76.6223 36.2594 75.8096 36.6119 75.2468 37.317C74.6866 38.0221 74.4052 38.9727 74.4052 40.1635C74.4052 41.4587 74.6787 42.4484 75.2258 43.1352C75.7728 43.822 76.646 44.1641 77.8479 44.1641C78.1871 44.1641 78.5685 44.1223 78.9919 44.0388C79.4153 43.9552 79.7835 43.8351 80.0965 43.6784L80.5278 46.3577C80.0597 46.5379 79.5363 46.6789 78.963 46.7755V46.7781Z" fill="white"/>
<path d="M103.733 42.5919C103.733 43.2134 103.607 43.7931 103.352 44.3311C103.097 44.869 102.739 45.3338 102.276 45.7282C101.813 46.1225 101.261 46.4306 100.625 46.65C99.9856 46.8693 99.2755 46.979 98.4918 46.979C97.8658 46.979 97.2978 46.9503 96.7902 46.8902C96.28 46.8328 95.7987 46.744 95.3437 46.6291L95.6356 43.7539C96.0669 43.9341 96.5272 44.0778 97.0137 44.1822C97.5029 44.2867 98.021 44.3389 98.568 44.3389C99.0625 44.3389 99.4885 44.2318 99.8383 44.0177C100.191 43.8036 100.367 43.4588 100.367 42.9784C100.367 42.6023 100.235 42.3124 99.9751 42.1035C99.7147 41.8972 99.3886 41.7118 98.9967 41.5499C98.6049 41.388 98.1814 41.2235 97.7264 41.0538C97.2688 40.8866 96.8454 40.6594 96.4562 40.3748C96.0643 40.0901 95.7382 39.7245 95.4778 39.278C95.2174 38.8314 95.0859 38.2387 95.0859 37.5022C95.0859 36.8807 95.2043 36.3219 95.4384 35.8231C95.6724 35.3243 96.0117 34.8935 96.4562 34.5305C96.9006 34.1675 97.445 33.8907 98.0894 33.6948C98.7337 33.499 99.4754 33.4023 100.309 33.4023C100.648 33.4023 101.038 33.4206 101.482 33.4598C101.924 33.499 102.334 33.5643 102.713 33.6556L102.439 36.2958C101.695 36.0372 100.94 35.9067 100.172 35.9067C99.5464 35.9067 99.0861 36.019 98.7942 36.2462C98.4997 36.4734 98.3524 36.7737 98.3524 37.1497C98.3524 37.4866 98.4865 37.7582 98.7548 37.9645C99.0204 38.1734 99.3544 38.3614 99.7515 38.5364C100.149 38.7113 100.58 38.8889 101.043 39.0691C101.506 39.2519 101.937 39.4869 102.334 39.7794C102.731 40.0693 103.063 40.4401 103.331 40.8866C103.597 41.3332 103.731 41.8998 103.731 42.5866L103.733 42.5919Z" fill="white"/>
<path d="M117.205 46.7781C116.632 46.8748 116.058 46.9244 115.485 46.9244C114.273 46.9244 113.268 46.7364 112.474 46.3603C111.68 45.9843 111.046 45.4985 110.578 44.9031C110.107 44.3078 109.778 43.6366 109.589 42.8924C109.399 42.1481 109.305 41.4065 109.305 40.6675C109.305 39.6072 109.449 38.6384 109.736 37.7636C110.023 36.8888 110.449 36.1393 111.017 35.5099C111.585 34.8832 112.282 34.3975 113.11 34.0528C113.939 33.7107 114.899 33.5383 115.995 33.5383C116.453 33.5383 116.916 33.5671 117.384 33.6271C117.855 33.6846 118.291 33.7786 118.694 33.9092L118.302 36.6668C117.558 36.3952 116.769 36.2594 115.935 36.2594C114.864 36.2594 114.052 36.6119 113.489 37.317C112.929 38.0221 112.647 38.9727 112.647 40.1635C112.647 41.4587 112.921 42.4484 113.468 43.1352C114.015 43.822 114.888 44.1641 116.09 44.1641C116.429 44.1641 116.811 44.1223 117.234 44.0388C117.658 43.9552 118.026 43.8351 118.339 43.6784L118.77 46.3577C118.302 46.5379 117.779 46.6789 117.205 46.7755V46.7781Z" fill="white"/>
<path d="M133.046 46.7467V41.2889H128.215V46.7467H125.164V33.6375H128.215V38.667H133.046V33.6375H136.097V46.7467H133.046Z" fill="white"/>
<path d="M154.96 39.9884C154.96 41.0643 154.792 42.0358 154.452 42.9027C154.113 43.7697 153.648 44.5088 153.053 45.1172C152.459 45.7257 151.765 46.1931 150.97 46.5143C150.176 46.8381 149.321 47 148.409 47C147.391 47 146.502 46.8486 145.739 46.543C144.977 46.2401 144.34 45.7988 143.832 45.2243C143.325 44.6472 142.946 43.9525 142.699 43.1352C142.452 42.3204 142.328 41.3934 142.328 40.3592C142.328 39.3251 142.499 38.338 142.846 37.4762C143.191 36.6145 143.662 35.8807 144.253 35.2722C144.848 34.6638 145.542 34.1989 146.336 33.8751C147.13 33.5513 147.98 33.3894 148.879 33.3894C149.779 33.3894 150.563 33.52 151.304 33.7785C152.049 34.037 152.69 34.4366 153.229 34.9719C153.771 35.5099 154.195 36.1941 154.5 37.0219C154.805 37.8523 154.96 38.842 154.96 39.9936V39.9884ZM151.733 40.1843C151.733 38.8498 151.473 37.8445 150.952 37.1655C150.428 36.4865 149.661 36.147 148.643 36.147C148.251 36.147 147.87 36.2254 147.499 36.3795C147.128 36.5335 146.796 36.7738 146.51 37.0976C146.223 37.4214 145.992 37.8314 145.815 38.3302C145.639 38.829 145.552 39.4217 145.552 40.1085C145.552 41.3777 145.797 42.3805 146.286 43.1169C146.775 43.8559 147.541 44.2241 148.585 44.2241C148.95 44.2241 149.319 44.1536 149.689 44.01C150.06 43.8663 150.397 43.6365 150.697 43.3206C150.997 43.0046 151.244 42.5868 151.441 42.0671C151.638 41.55 151.736 40.9207 151.736 40.1843H151.733Z" fill="white"/>
<path d="M173.202 39.9884C173.202 41.0643 173.034 42.0358 172.695 42.9027C172.355 43.7697 171.89 44.5088 171.295 45.1172C170.701 45.7257 170.007 46.1931 169.212 46.5143C168.418 46.8381 167.563 47 166.651 47C165.633 47 164.744 46.8486 163.981 46.543C163.219 46.2401 162.582 45.7988 162.075 45.2243C161.567 44.6472 161.188 43.9525 160.941 43.1352C160.694 42.3204 160.57 41.3934 160.57 40.3592C160.57 39.3251 160.741 38.338 161.088 37.4762C161.433 36.6145 161.904 35.8807 162.495 35.2722C163.09 34.6638 163.784 34.1989 164.578 33.8751C165.373 33.5513 166.222 33.3894 167.122 33.3894C168.021 33.3894 168.805 33.52 169.546 33.7785C170.291 34.037 170.932 34.4366 171.472 34.9719C172.013 35.5099 172.437 36.1941 172.742 37.0219C173.047 37.8523 173.202 38.842 173.202 39.9936V39.9884ZM169.975 40.1843C169.975 38.8498 169.715 37.8445 169.194 37.1655C168.671 36.4865 167.903 36.147 166.885 36.147C166.493 36.147 166.112 36.2254 165.741 36.3795C165.37 36.5335 165.039 36.7738 164.752 37.0976C164.465 37.4214 164.234 37.8314 164.058 38.3302C163.881 38.829 163.795 39.4217 163.795 40.1085C163.795 41.3777 164.039 42.3805 164.528 43.1169C165.018 43.8559 165.783 44.2241 166.827 44.2241C167.193 44.2241 167.561 44.1536 167.932 44.01C168.302 43.8663 168.639 43.6365 168.939 43.3206C169.239 43.0046 169.486 42.5868 169.683 42.0671C169.88 41.55 169.978 40.9207 169.978 40.1843H169.975Z" fill="white"/>
<path d="M179.32 46.7467V33.6375H182.371V44.0648H186.361V46.7441H179.32V46.7467Z" fill="white"/>
<path d="M199.874 42.5919C199.874 43.2134 199.748 43.7931 199.493 44.3311C199.238 44.869 198.88 45.3338 198.417 45.7282C197.954 46.1225 197.402 46.4306 196.765 46.65C196.126 46.8693 195.416 46.979 194.632 46.979C194.006 46.979 193.438 46.9503 192.931 46.8902C192.421 46.8328 191.939 46.744 191.484 46.6291L191.776 43.7539C192.208 43.9341 192.668 44.0778 193.154 44.1822C193.644 44.2867 194.162 44.3389 194.709 44.3389C195.203 44.3389 195.629 44.2318 195.979 44.0177C196.331 43.8036 196.508 43.4588 196.508 42.9784C196.508 42.6023 196.376 42.3124 196.116 42.1035C195.855 41.8972 195.529 41.7118 195.137 41.5499C194.745 41.388 194.322 41.2235 193.867 41.0538C193.409 40.8866 192.986 40.6594 192.597 40.3748C192.205 40.0901 191.879 39.7245 191.618 39.278C191.358 38.8314 191.227 38.2387 191.227 37.5022C191.227 36.8807 191.345 36.3219 191.579 35.8231C191.813 35.3243 192.152 34.8935 192.597 34.5305C193.041 34.1675 193.586 33.8907 194.23 33.6948C194.874 33.499 195.616 33.4023 196.45 33.4023C196.789 33.4023 197.178 33.4206 197.623 33.4598C198.065 33.499 198.475 33.5643 198.854 33.6556L198.58 36.2958C197.836 36.0372 197.081 35.9067 196.313 35.9067C195.687 35.9067 195.227 36.019 194.935 36.2462C194.64 36.4734 194.493 36.7737 194.493 37.1497C194.493 37.4866 194.627 37.7582 194.895 37.9645C195.161 38.1734 195.495 38.3614 195.892 38.5364C196.289 38.7113 196.721 38.8889 197.183 39.0691C197.646 39.2519 198.078 39.4869 198.475 39.7794C198.872 40.0693 199.203 40.4401 199.472 40.8866C199.737 41.3332 199.871 41.8998 199.871 42.5866L199.874 42.5919Z" fill="white"/>
<path d="M88.0136 11.2186C84.8129 11.2186 82.1172 8.68552 82.1172 5.60929C82.1172 2.53306 84.8103 0 88.0136 0C91.2169 0 93.989 2.53045 93.989 5.60929C93.989 8.68813 91.2958 11.2186 88.0136 11.2186ZM88.0136 25.4873C84.8129 25.4873 82.1172 22.9568 82.1172 19.8728C82.1172 16.7887 84.8129 14.2661 88.0136 14.2661C91.2143 14.2661 93.989 16.7965 93.989 19.8728C93.989 22.949 91.2958 25.4873 88.0136 25.4873Z" fill="white"/>
<path d="M15.0713 24.9257L6.54751 13.8742V24.9257H0.117188V0.57959H6.54751V11.02L15.0713 0.57959H22.9481L12.9752 12.2839L23.5451 24.9257H15.0713Z" fill="white"/>
<path d="M31.8158 0.577148H25.3828V24.9232H31.8158V0.577148Z" fill="white"/>
<path d="M50.1946 8.91279C50.1946 11.3466 48.351 12.7072 45.5606 12.7072C44.9609 12.7072 44.0667 12.6602 43.567 12.5661V5.30906C44.164 5.26205 45.1108 5.26205 45.8578 5.26205C48.7481 5.26205 50.192 6.90201 50.192 8.9154M57.0194 8.58637C57.0194 3.38707 53.1323 0.441406 46.3022 0.441406C43.1147 0.441406 39.4274 0.4858 37.1367 0.582422V24.9285H43.5644V17.392C44.1141 17.4364 45.1582 17.4834 45.7052 17.4834C52.2881 17.4834 57.0194 14.0677 57.0194 8.58637Z" fill="white"/>
<path d="M72.2219 8.91279C72.2219 11.3466 70.381 12.7072 67.5905 12.7072C66.9935 12.7072 66.0941 12.6602 65.597 12.5661V5.30906C66.194 5.26205 67.1408 5.26205 67.8877 5.26205C70.7781 5.26205 72.2219 6.90201 72.2219 8.9154M79.052 8.58637C79.052 3.38707 75.1649 0.441406 68.3375 0.441406C65.1446 0.441406 61.46 0.4858 59.1641 0.582422V24.9285H65.597V17.392C66.144 17.4364 67.1882 17.4834 67.7404 17.4834C74.318 17.4834 79.0547 14.0677 79.0547 8.58637" fill="white"/>
<path d="M112.208 6.37443V24.9049H105.467V6.37443H100.176V0.618896H117.497V6.37704H112.205L112.208 6.37443Z" fill="white"/>
<path d="M119.492 24.9049V0.618896H133.807V6.30392H126.233V9.72224H131.853V15.1905H126.233V19.1128H133.807V24.9049H119.492Z" fill="white"/>
<path d="M174.546 24.9101L173.278 20.9512H165.74L164.507 24.9101H157.84L165.143 0.624023H174.243L181.902 24.9101H174.546ZM169.435 7.18909L167.539 15.6996H171.892L169.948 7.1917H169.438L169.435 7.18909Z" fill="white"/>
<path d="M199.992 16.9532C199.992 18.1518 199.745 19.2617 199.248 20.2801C198.753 21.2986 198.059 22.1864 197.165 22.9438C196.27 23.6984 195.213 24.2938 193.993 24.7247C192.772 25.1556 191.426 25.3724 189.953 25.3724C188.722 25.3724 187.628 25.3227 186.674 25.2287C185.719 25.1321 184.796 24.9754 183.902 24.7613L183.912 18.1806C184.733 18.5174 186.171 19.0058 187.089 19.2199C188.007 19.4366 189.009 19.5437 190.098 19.5437C190.75 19.5437 191.305 19.4001 191.765 19.1128C192.223 18.8256 192.454 18.3921 192.454 17.8176C192.454 17.2431 192.231 16.7861 191.784 16.4518C191.337 16.1149 190.774 15.8225 190.098 15.5692C189.422 15.3185 188.685 15.0417 187.889 14.7413C187.092 14.441 186.353 14.0284 185.677 13.5009C185.001 12.9734 184.438 12.284 183.991 11.4327C183.544 10.5814 183.32 9.46109 183.32 8.06921C183.32 5.64583 184.209 3.72123 185.984 2.2954C187.76 0.869577 190.266 0.154053 193.504 0.154053C194.132 0.154053 194.855 0.190612 195.679 0.26112C196.499 0.331628 197.272 0.451753 197.998 0.621494L197.951 6.58855C197.275 6.3483 196.065 5.99576 195.389 5.87302C194.713 5.7529 194.001 5.69283 193.251 5.69283C192.31 5.69283 191.626 5.8443 191.202 6.142C190.779 6.44231 190.569 6.83141 190.569 7.3119C190.569 7.8159 190.805 8.22851 191.276 8.55232C191.747 8.87613 192.328 9.17644 193.014 9.45064C193.704 9.72745 194.458 10.033 195.279 10.3672C196.099 10.7041 196.854 11.1481 197.543 11.6991C198.232 12.2501 198.811 12.9395 199.282 13.7673C199.752 14.5951 199.989 15.6553 199.989 16.9532H199.992Z" fill="white"/>
<path d="M148.867 24.9022L146.029 17.5616L143.173 24.9022H135.801L141.947 12.5973L135.806 0.616211H143.165L146.031 7.81062L148.877 0.616211H156.717L150.284 12.5947L156.678 24.8996H148.872L148.867 24.9022Z" fill="white"/>
<path d="M200 28.4539H0V30.0703H200V28.4539Z" fill="white"/>
</g>
<defs>
<clipPath id="clip0_848_4154">
<rect width="200" height="47" fill="white"/>
</clipPath>
</defs>
</svg>
